<mxfile host="app.diagrams.net" modified="2021-05-27T11:14:56.930Z" agent="5.0 (Windows NT 10.0; Win64; x64) AppleWebKit/537.36 (KHTML, like Gecko) Chrome/90.0.4430.212 Safari/537.36 Edg/90.0.818.66" etag="fk5y7Mzps0zKp3gdJGa0" version="14.7.1" type="github">
  <diagram id="RCAkzz-6jkVYdmTiBrgX" name="Page-1">
    <mxGraphModel dx="269" dy="569" grid="1" gridSize="10" guides="1" tooltips="1" connect="1" arrows="1" fold="1" page="1" pageScale="1" pageWidth="827" pageHeight="1169" math="0" shadow="0">
      <root>
        <mxCell id="0" />
        <mxCell id="1" parent="0" />
        <mxCell id="AD0exktpV1l-wwlqE403-2" value="" style="ellipse;html=1;shape=endState;fillColor=#000000;strokeColor=#ff0000;" vertex="1" parent="1">
          <mxGeometry x="370" y="10" width="60" height="60" as="geometry" />
        </mxCell>
        <mxCell id="AD0exktpV1l-wwlqE403-5" value="" style="endArrow=classic;html=1;" edge="1" parent="1">
          <mxGeometry width="50" height="50" relative="1" as="geometry">
            <mxPoint x="400" y="70" as="sourcePoint" />
            <mxPoint x="400" y="120" as="targetPoint" />
          </mxGeometry>
        </mxCell>
        <mxCell id="AD0exktpV1l-wwlqE403-6" value="Ввод A" style="rounded=1;whiteSpace=wrap;html=1;arcSize=50;fontSize=20;" vertex="1" parent="1">
          <mxGeometry x="340" y="120" width="120" height="40" as="geometry" />
        </mxCell>
        <mxCell id="AD0exktpV1l-wwlqE403-7" value="" style="endArrow=classic;html=1;" edge="1" parent="1">
          <mxGeometry width="50" height="50" relative="1" as="geometry">
            <mxPoint x="399.5" y="160" as="sourcePoint" />
            <mxPoint x="400" y="200" as="targetPoint" />
          </mxGeometry>
        </mxCell>
        <mxCell id="AD0exktpV1l-wwlqE403-8" value="" style="rhombus;whiteSpace=wrap;html=1;fontSize=20;strokeColor=#000000;" vertex="1" parent="1">
          <mxGeometry x="360" y="200" width="80" height="80" as="geometry" />
        </mxCell>
        <mxCell id="AD0exktpV1l-wwlqE403-9" value="" style="endArrow=none;html=1;fontSize=20;" edge="1" parent="1">
          <mxGeometry width="50" height="50" relative="1" as="geometry">
            <mxPoint x="440" y="239.5" as="sourcePoint" />
            <mxPoint x="520" y="240" as="targetPoint" />
            <Array as="points">
              <mxPoint x="470" y="239.5" />
            </Array>
          </mxGeometry>
        </mxCell>
        <mxCell id="AD0exktpV1l-wwlqE403-10" value="" style="endArrow=classic;html=1;fontSize=20;" edge="1" parent="1">
          <mxGeometry width="50" height="50" relative="1" as="geometry">
            <mxPoint x="520" y="240" as="sourcePoint" />
            <mxPoint x="520" y="280" as="targetPoint" />
          </mxGeometry>
        </mxCell>
        <mxCell id="AD0exktpV1l-wwlqE403-11" value="Ввод A" style="rounded=1;whiteSpace=wrap;html=1;arcSize=50;fontSize=20;" vertex="1" parent="1">
          <mxGeometry x="460" y="280" width="120" height="40" as="geometry" />
        </mxCell>
        <mxCell id="AD0exktpV1l-wwlqE403-12" value="" style="endArrow=none;html=1;fontSize=20;" edge="1" parent="1">
          <mxGeometry width="50" height="50" relative="1" as="geometry">
            <mxPoint x="310" y="290" as="sourcePoint" />
            <mxPoint x="360" y="240" as="targetPoint" />
          </mxGeometry>
        </mxCell>
      </root>
    </mxGraphModel>
  </diagram>
</mxfile>
